<svg version="1" xmlns="http://www.w3.org/2000/svg" width="268" height="268" viewBox="0 0 201.000000 201.000000"><path d="M0 100c0 79.3.3 100 1.3 100.1.6 0 45.5.1 99.7.2h98.5l.3-100.1L200 0H0v100zm191.1-88.5c.3 11.3-.2 178.9-.6 179.3-.6.6-180.5.6-181.1-.1-1-1-.6-181 .4-181.6.6-.3 41.6-.6 91.1-.6H191l.1 3z"/><path d="M125.5 36.1c-2.2.4-4.4.4-5 .1-1.9-1 2.9 4 20.2 21.2 23.8 23.7 22.8 22.9 23 20.8.9-8.8.9-27.9.1-30.9-1.1-4.3-5.1-9-8.8-10.6-2.9-1.2-23.5-1.6-29.5-.6zM104.5 40.2C89.9 44.3 73.6 53.4 64 62.9c-10.1 9.9-19.6 26.4-23.8 41.6l-2 7 25 25.1 25.1 25.2 7.1-1.9c9.8-2.7 25.7-10.7 34.1-17.2 3.9-2.9 9.4-8.2 12.3-11.8 6.2-7.6 15.4-25.6 18.1-35.5l1.9-7.1-25.2-25.1-25.1-25-7 2zm9.8 36.5c1.2 1.9 2.5 1.6 5.9-1.2 2.8-2.4 3.2-2.5 4.9-.9 2 1.8 1.5 4.2-1.3 6.2-2.5 1.8-2.2 3.2 1.1 6.5 5.5 5.4.8 9.7-4.8 4.5-3.1-2.9-3.3-2.9-5.7-1.3-3.5 2.3-4.1 4.5-1.8 6.4 3.3 2.8 4.5 4.8 3.8 6.5-.9 2.4-4.7 1.9-7.4-.9-2.9-3.1-3.3-3.1-6.4-.1-2.6 2.3-3.3 4.1-1.8 4.8 1.7.7 5 6 4.6 7.3-1 2.6-3.4 2.4-6.9-.6-3.9-3.4-5.5-3.3-8.1.6-1.7 2.5-1.6 2.7 1.4 5.6 3.6 3.5 3.6 6.3-.1 6.7-1.9.2-3.4-.5-5.1-2.5l-2.4-2.8-3.1 2.2c-3.4 2.6-5.4 2.9-6.9 1-.9-1-.5-2.3 1.5-5l2.6-3.7-3.1-3.1c-3.7-3.6-3.8-4.2-1.6-6.3 2.1-2.2 2.6-2 6 1.4 3.5 3.6 4 3.6 7 .7 3.1-2.9 3-3.6-.6-7-3.5-3.3-3.6-4-1.4-6.2 1.5-1.4 1.8-1.4 3.8 0 7.1 5.1 6.4 4.9 9.1 2.4 2.7-2.7 3.1-4.4 1.3-5.6-.7-.4-2.2-1.8-3.2-3.1-1.8-2.1-1.8-2.3-.1-4.2 2.3-2.6 2.5-2.6 6.3 1.1 3.5 3.5 5.2 3.3 7.8-.6 1.7-2.5 1.6-2.7-1.5-5.7-3.6-3.5-3.7-4.1-1.5-6.3 1.5-1.5 1.8-1.4 4.3.1 1.4 1 3 2.3 3.4 3.1zM36.2 122.2c-.8 7.6-.8 27.5 0 30.6 1.3 5.2 5.7 9.7 10.9 11 2.3.6 9.6.8 16.7.6 15.5-.6 15.2-.6 15.2-1.5S38 121 37.1 121c-.4 0-.8.6-.9 1.2z"/></svg>