<?xml version="1.0" encoding="UTF-8" standalone="no"?>
<!DOCTYPE svg PUBLIC "-//W3C//DTD SVG 1.1//EN" "http://www.w3.org/Graphics/SVG/1.1/DTD/svg11.dtd">
<svg width="100%" height="100%" viewBox="0 0 8067 4809" version="1.1" xmlns="http://www.w3.org/2000/svg" xmlns:xlink="http://www.w3.org/1999/xlink" xml:space="preserve" xmlns:serif="http://www.serif.com/" style="fill-rule:evenodd;clip-rule:evenodd;stroke-linejoin:round;stroke-miterlimit:2;">
    <g transform="matrix(4.16667,0,0,4.16667,0,0)">
        <path d="M545.877,586.7C548.578,578.165 551.74,568.963 556.31,561.309C564.966,546.808 580.089,542.773 596.784,546.724C613.133,550.593 623.24,561.96 624.45,578.57C624.899,584.73 624.705,591.005 624.069,597.167C622.502,612.353 616.352,626.627 620.784,631.813C625.644,637.498 641.944,634.496 660.298,633.482C669.352,632.982 678.483,637.757 680.057,617.299C682.117,590.517 683.35,575.204 683.354,548.355C683.355,533.335 671.869,517.18 662.884,508.534C641.566,488.023 615.364,481.221 587.085,479.614C561.557,478.164 539.539,486.337 521.089,504.22C499.226,525.414 495.334,552.873 490.694,581.346C485.023,616.143 486.278,648.438 498.025,681.669C516.33,733.455 563.866,783.273 577.848,812.798C586.418,830.897 589.391,849.623 587.031,869.194C584.462,890.499 575.727,908.986 558.896,922.886C547.813,932.04 534.954,933.698 521.866,928.095C509.086,922.624 503.248,912.163 503.683,898.299C503.899,891.404 503.774,884.47 504.466,877.62C508.257,840.065 507.507,839.195 468.81,839.743C466.043,839.783 458.954,838.694 456.889,839.937C453.16,842.183 451.374,845.71 451.057,848.975C448,880.452 444.341,912.006 444.044,943.567C443.86,963.195 466.728,985.26 485.71,990.671C505.376,996.278 522.333,995.386 544.72,992.697C570.994,989.541 588.098,976.194 606.001,959.227C652.831,914.843 657.509,837.231 624.449,785.122C612.925,766.475 599.754,746.225 585.899,729.495C551.167,687.557 529.07,639.802 545.877,586.7Z" style="fill:rgb(239,203,33);fill-rule:nonzero;"/>
        <path d="M1645.05,522.258C1652.33,484.888 1652.87,486.309 1637.8,486.309C1635.73,486.309 1608.75,486.412 1606.69,486.353C1599.39,486.142 1595.49,487.538 1594.27,494.955C1588.37,530.804 1567.72,643.826 1564.9,656.515C1563.4,663.289 1561.26,670.272 1552.05,669.871C1542.38,669.449 1539.57,662.692 1538.55,654.612C1537.27,644.411 1536.01,634.205 1534.98,623.978C1532.31,597.469 1528.82,552.528 1527.09,534.16C1522.09,481.238 1522.77,486.198 1473.21,486.317C1458.57,486.353 1457.46,499.027 1455.97,507.849C1451.07,536.871 1388.29,890.727 1378.53,949.883C1375.95,965.52 1373.16,972.034 1384.7,972.034C1390.79,972.034 1392.53,972.191 1412.54,972.346C1430.02,972.483 1430.42,972.143 1433.59,954.21C1438.63,925.741 1442.82,897.124 1447.83,868.651C1452.95,839.521 1458.62,810.487 1464.05,781.412C1473.61,776.507 1482.73,774.237 1489.63,785.575C1494.96,836.111 1500.81,886.598 1505.41,937.199C1508.03,966.009 1511.04,972.034 1519.75,972.034C1523.85,971.998 1549.12,972.034 1553.26,972.034C1566.2,972.034 1567.13,968.773 1568.82,956.075C1571.36,937.043 1640.32,546.488 1645.05,522.258Z" style="fill:rgb(239,203,33);fill-rule:nonzero;"/>
        <path d="M870.082,568.897C871.18,556.58 877.941,552.237 889.416,552.566C898.418,552.824 907.439,552.527 916.439,552.837C925.085,553.134 930.664,552.504 932.585,542.758C935.118,529.913 936.159,522.255 938.824,507.055C941.827,489.93 938.625,486.465 922.261,486.371C902.165,486.255 888.059,486.521 867.962,486.46C829.182,486.342 790.399,486.378 751.626,485.765C739.902,485.58 733.643,489.428 731.951,501.551C730.335,513.133 726.824,524.44 724.602,535.955C721.7,550.99 721.883,551.295 736.954,551.841C757.707,552.594 782.071,551.694 802.833,552.186C801.708,567.854 759.337,853.684 748.628,925.234C743.737,957.912 738.337,972.728 751.549,972.728C756.543,972.728 773.749,972.796 781.54,972.724C802.682,972.528 803.351,971.994 806.832,951.529C812.486,918.286 869.351,577.092 870.082,568.897Z" style="fill:rgb(239,203,33);fill-rule:nonzero;"/>
        <path d="M1696.99,581.567C1682.4,664.724 1640.07,927.939 1638.3,945.061C1636.31,964.363 1634.65,972.034 1653.85,972.034C1696.82,972.034 1725.3,972.354 1765.98,972.034C1792.12,971.829 1806.52,965.695 1811.96,942.462C1820.58,905.67 1840.47,801.497 1843,786.639C1844.33,778.836 1845.13,770.196 1832.52,770.196C1812.57,770.196 1797.32,770.101 1777.37,770.101C1767.33,770.101 1765.19,773.654 1763.18,781.502C1759.18,797.119 1756.77,808.248 1753.03,824.268C1774.85,825.938 1780.34,825.346 1776.27,843.383C1775.07,848.67 1768.19,883.667 1764.56,895.432C1759.34,912.325 1741.5,923.982 1726.84,921.819C1714.06,919.931 1703.15,905.598 1702.06,887.553C1701.53,878.691 1758.2,568.99 1767.62,557.523C1777.03,546.064 1793.33,546.991 1803.71,551.074C1814.54,555.333 1820.31,564.483 1818.43,584.962C1817.74,592.496 1814.57,602.512 1814.24,610.082C1813.92,617.353 1813.86,622.167 1822.09,622.284C1834.54,622.461 1853.04,623.529 1865.38,622.479C1869.15,622.157 1873.95,623.44 1875.52,612.659C1878.69,590.964 1884.03,566.483 1882.76,544.838C1881.38,521.244 1869.9,502.343 1844.67,493.376C1819.24,484.341 1788.7,486.353 1762.3,486.353C1725.98,486.353 1705,535.834 1696.99,581.567Z" style="fill:rgb(239,203,33);fill-rule:nonzero;"/>
        <path d="M1090.03,619.719C1087.22,635.19 1082.8,650.874 1074.63,664.302C1067.21,676.507 1061.51,682.721 1046.8,689.667C1035.08,695.197 1029.1,687.782 1030.83,674.693C1033.96,650.915 1037.48,627.188 1040.84,603.44C1043.78,589.359 1046.22,575.152 1049.81,561.236C1052.81,549.572 1060.62,546.425 1069.26,554.668C1077.44,562.473 1085.06,571.538 1088.27,582.606C1091,592.02 1092.5,606.177 1090.03,619.719ZM1116.92,488.611C1081.7,487.071 1046.39,487.733 1011.12,487.357C1003.79,487.279 999.779,489.902 998.762,497.803C994.631,529.908 933.77,890.417 926.216,933.11C919.086,973.404 918.896,973.37 960.661,975.528C980.972,976.577 981.213,976.618 984.662,956.734C993.361,906.572 1001.82,856.369 1010.38,806.183C1012.03,798.18 1013.65,790.169 1015.34,782.174C1018.95,765.136 1025.25,762.089 1041.12,769.132C1051.36,773.683 1066.08,785.075 1060.89,814.546C1053.83,854.532 1046.49,894.468 1039.36,934.441C1038.03,941.892 1037.01,949.397 1035.87,956.882C1034.26,967.505 1038.99,972.224 1049.63,972.148C1059.99,972.072 1067.98,972.225 1078.33,972.829C1088.73,973.437 1093.41,968.116 1095.09,958.691C1097.61,944.461 1100.38,930.274 1102.91,916.045C1108.92,882.214 1125.11,817.595 1123.71,789.105C1122.88,771.945 1110.02,758.458 1099.33,747.785C1088.16,736.633 1088.1,733.862 1098.51,722.08C1104.46,715.347 1111.65,709.547 1116.76,702.27C1123.42,692.783 1129.55,685.413 1133.82,672.051C1140.85,650.008 1142.67,626.529 1149.27,589.661C1152.52,571.514 1155.1,547.866 1155.21,532.166C1155.37,507.392 1142.05,489.711 1116.92,488.611Z" style="fill:rgb(239,203,33);fill-rule:nonzero;"/>
        <path d="M1325.35,586.566C1321.13,623.755 1278.05,864.412 1273.69,883.155C1268.74,904.475 1255.97,913.344 1236.69,909.888C1220.05,906.905 1209.61,892.012 1212.06,872.109C1214.08,855.709 1261.62,610.841 1268.95,577.658C1275.33,548.785 1329.58,549.223 1325.35,586.566ZM1363.81,486.353L1262.34,486.353C1243.65,486.353 1228.43,515.12 1223.29,531.857C1212.53,566.909 1161.84,900.385 1155.28,946.655C1152.2,972.034 1150.2,972.034 1174.56,972.034L1277.36,972.034C1301.06,972.034 1313.07,961.078 1316.41,944.314C1324.44,903.855 1393.41,578.566 1397.26,552.8C1401.6,523.679 1394.82,486.353 1363.81,486.353Z" style="fill:rgb(239,203,33);fill-rule:nonzero;"/>
        <path d="M1645.05,522.258C1652.33,484.888 1652.87,486.309 1637.8,486.309C1635.73,486.309 1608.75,486.412 1606.69,486.353C1599.39,486.142 1595.49,487.538 1594.27,494.955C1588.37,530.804 1567.72,643.826 1564.9,656.515C1563.4,663.289 1561.26,670.272 1552.05,669.871C1542.38,669.449 1539.57,662.692 1538.55,654.612C1537.27,644.411 1536.01,634.205 1534.98,623.978C1532.31,597.469 1528.82,552.528 1527.09,534.16C1522.09,481.238 1522.77,486.198 1473.21,486.317C1458.57,486.353 1457.46,499.027 1455.97,507.849C1451.07,536.871 1388.29,890.727 1378.53,949.883C1375.95,965.52 1373.16,972.034 1384.7,972.034C1390.79,972.034 1392.53,972.191 1412.54,972.346C1430.02,972.483 1430.42,972.143 1433.59,954.21C1438.63,925.741 1442.82,897.124 1447.83,868.651C1452.95,839.521 1458.62,810.487 1464.05,781.412C1473.61,776.507 1482.73,774.237 1489.63,785.575C1494.96,836.111 1500.81,886.598 1505.41,937.199C1508.03,966.009 1511.04,972.034 1519.75,972.034C1523.85,971.998 1549.12,972.034 1553.26,972.034C1566.2,972.034 1567.13,968.773 1568.82,956.075C1571.36,937.043 1640.32,546.488 1645.05,522.258ZM1442.85,494.245C1447.49,471.381 1447.8,471.239 1470.26,470.856C1487.5,470.562 1508.35,471.258 1525.56,471.258C1533.6,471.258 1539.3,496.882 1541.11,519.45C1545.01,568.016 1552.49,647.977 1552.49,647.977C1552.49,647.977 1577.12,508.62 1582.46,482.545C1583.36,478.173 1583.22,471.78 1598.17,471.78L1669.82,471.78C1664.25,504.294 1606.79,831.069 1584.37,960.55C1580.2,984.61 1586.2,988.537 1559.75,988.537L1493.94,988.537C1490.99,967.979 1476.43,812.518 1476.43,812.518C1476.43,812.518 1467.72,859.131 1463.98,876.88C1457.46,907.909 1452.12,939.187 1446.37,970.376C1444.01,983.148 1445.12,988.537 1423.49,988.33C1408.29,988.185 1393.04,988.187 1377.8,988.337C1357.4,988.537 1357.36,980.857 1359.52,966.142C1374.05,867.354 1436.97,523.186 1442.85,494.245Z" style="fill-rule:nonzero;"/>
        <path d="M1696.99,581.567C1682.4,664.724 1640.07,927.939 1638.3,945.061C1636.31,964.363 1634.65,972.034 1653.85,972.034C1696.82,972.034 1725.3,972.354 1765.98,972.034C1792.12,971.829 1806.52,965.695 1811.96,942.462C1820.58,905.67 1840.47,801.497 1843,786.639C1844.33,778.836 1845.13,770.196 1832.52,770.196C1812.57,770.196 1797.32,770.101 1777.37,770.101C1767.33,770.101 1765.19,773.654 1763.18,781.502C1759.18,797.119 1756.77,808.248 1753.03,824.268C1774.85,825.938 1780.34,825.346 1776.27,843.383C1775.07,848.67 1768.19,883.667 1764.56,895.432C1759.34,912.325 1741.5,923.982 1726.84,921.819C1714.06,919.931 1703.15,905.598 1702.06,887.553C1701.53,878.691 1758.2,568.99 1767.62,557.523C1777.03,546.064 1793.33,546.991 1803.71,551.074C1814.54,555.333 1820.31,564.483 1818.43,584.962C1817.74,592.496 1814.57,602.512 1814.24,610.082C1813.92,617.353 1813.86,622.167 1822.09,622.284C1834.54,622.461 1853.04,623.529 1865.38,622.479C1869.15,622.157 1873.95,623.44 1875.52,612.659C1878.69,590.964 1884.03,566.483 1882.76,544.838C1881.38,521.244 1869.9,502.343 1844.67,493.376C1819.24,484.341 1788.7,486.353 1762.3,486.353C1725.98,486.353 1705,535.834 1696.99,581.567ZM1688.75,544.949C1696.82,508.415 1721.28,470.087 1767.21,470.087C1799.88,470.087 1825.65,469.59 1856.34,482.559C1871.35,488.906 1887.33,496.736 1892.48,512.416C1897.38,527.316 1896.81,543.741 1896.12,559.278C1895.25,579.025 1890.66,598.582 1889.09,618.334C1888.04,631.639 1881.7,636.201 1869.25,636.112C1849.27,635.97 1824.27,636.666 1804.52,636.666C1798.01,636.666 1795.91,632.987 1798.66,617.385C1800.42,607.352 1801.26,596.737 1802.98,586.668C1807.39,560.976 1781.31,561.373 1777.19,576.143C1773.79,588.322 1718.52,863.396 1718.41,884.627C1718.32,901.624 1731.41,914.105 1743.58,902.386C1753.07,893.24 1754.89,878.514 1760.07,854.979C1762.54,843.768 1761.17,841.955 1743.11,841.735C1735.73,841.644 1733.42,840.82 1736.63,827.294C1740.9,809.303 1745.18,791.259 1749.04,773.146C1751.65,760.924 1758.14,756.195 1770.82,756.684C1789.35,757.399 1826.43,756.369 1838.79,756.498C1862.47,756.745 1862.52,765.608 1859.15,790.037C1856.71,807.765 1835.78,920.137 1825.58,957.983C1818.52,984.181 1803.16,989.114 1776.21,988.537C1740.3,987.769 1709.51,989.128 1668.82,989.128C1640.17,989.128 1614.26,989.206 1619.07,964.294C1623.36,942.04 1682.98,571.052 1688.75,544.949Z" style="fill-rule:nonzero;"/>
        <path d="M545.877,586.7C548.578,578.165 551.74,568.963 556.31,561.309C564.966,546.808 580.089,542.773 596.784,546.724C613.133,550.593 623.24,561.96 624.45,578.57C624.899,584.73 624.705,591.005 624.069,597.167C622.502,612.353 616.352,626.627 620.784,631.813C625.644,637.498 641.944,634.496 660.298,633.482C669.352,632.982 678.483,637.757 680.057,617.299C682.117,590.517 683.35,575.204 683.354,548.355C683.355,533.335 671.869,517.18 662.884,508.534C641.566,488.023 615.364,481.221 587.085,479.614C561.557,478.164 539.539,486.337 521.089,504.22C499.226,525.414 495.334,552.873 490.694,581.346C485.023,616.143 486.278,648.438 498.025,681.669C516.33,733.455 563.866,783.273 577.848,812.798C586.418,830.897 589.391,849.623 587.031,869.194C584.462,890.499 575.727,908.986 558.896,922.886C547.813,932.04 534.954,933.698 521.866,928.095C509.086,922.624 503.248,912.163 503.683,898.299C503.899,891.404 503.774,884.47 504.466,877.62C508.257,840.065 507.507,839.195 468.81,839.743C466.043,839.783 458.954,838.694 456.889,839.937C453.16,842.183 451.374,845.71 451.057,848.975C448,880.452 444.341,912.006 444.044,943.567C443.86,963.195 466.728,985.26 485.71,990.671C505.376,996.278 522.333,995.386 544.72,992.697C570.994,989.541 588.098,976.194 606.001,959.227C652.831,914.843 657.509,837.231 624.449,785.122C612.925,766.475 599.754,746.225 585.899,729.495C551.167,687.557 529.07,639.802 545.877,586.7ZM566.375,665.035C574.698,687.906 591.65,710.196 604.814,729.283C620.296,751.733 643.861,779.915 653.331,806.289C665.105,839.083 662.398,874.83 654.104,908.813C645.608,943.626 626.882,971.902 594.058,990.045C545.453,1016.91 488.632,1020.41 444.841,980.76C432.58,969.658 427.6,953.571 428.446,937.503C430.209,904.025 433.487,870.61 437.015,837.26C437.434,833.295 443.242,826.792 446.63,826.743C469.944,826.405 493.282,827.367 516.601,828.237C519.099,828.329 522.604,829.354 523.974,831.726C534.908,850.629 520.391,875.301 520.091,897.11C519.859,914.183 526.612,918.082 545.442,914.549C569.033,895.984 578.717,864.007 569.526,834.759C561.129,808.037 544.61,784.355 527.242,762.633C496.332,723.972 478.107,681.048 472.904,631.415C469.474,598.693 472.799,566.583 482.655,535.284C491.306,507.809 507.855,486.662 534.099,473.173C551.814,464.069 574.066,463.577 592.645,463.918C631.977,464.641 666.392,484.52 686.241,512.505C701.04,533.368 700.692,564.815 697.738,591.837C696.25,605.452 695.045,619.106 694.077,632.768C692.809,650.662 687.379,652.85 669.275,652.215C647.277,651.445 609.494,655.39 603.32,648.859C597.081,642.258 605.979,602.026 607.31,578.61C606.112,566.659 598,562.301 587.446,561.618C576.115,560.886 569.474,567.495 565.871,577.525C554.655,608.749 554.688,632.921 566.375,665.035Z" style="fill-rule:nonzero;"/>
        <path d="M1149.27,589.662C1152.52,571.514 1155.1,547.866 1155.21,532.166C1155.37,507.392 1142.05,489.711 1116.92,488.611C1081.7,487.071 1046.39,487.733 1011.12,487.357C1003.79,487.279 999.779,489.902 998.762,497.803C994.631,529.908 933.77,890.417 926.216,933.11C919.086,973.404 918.896,973.37 960.661,975.528C980.972,976.577 981.213,976.618 984.662,956.734C993.361,906.572 1001.82,856.369 1010.38,806.184C1012.03,798.18 1013.65,790.169 1015.34,782.174C1018.95,765.136 1025.25,762.089 1041.12,769.132C1051.36,773.684 1066.08,785.075 1060.89,814.546C1053.83,854.531 1046.49,894.468 1039.36,934.441C1038.03,941.892 1037.01,949.397 1035.87,956.882C1034.26,967.505 1038.99,972.224 1049.63,972.148C1059.99,972.072 1067.98,972.225 1078.33,972.829C1088.73,973.437 1093.41,968.116 1095.09,958.691C1097.61,944.461 1100.38,930.274 1102.91,916.045C1108.92,882.214 1125.11,817.595 1123.71,789.105C1122.88,771.945 1110.02,758.458 1099.33,747.785C1088.16,736.633 1088.1,733.862 1098.51,722.08C1104.46,715.347 1111.65,709.547 1116.76,702.27C1123.42,692.783 1129.55,685.413 1133.82,672.051C1140.85,650.008 1142.67,626.529 1149.27,589.662ZM984.838,487.09C986.496,475.719 991.85,471.768 1001.95,471.817C1040.73,472.006 1079.52,472.035 1118.3,472.678C1141.09,473.055 1163.11,482.468 1168.95,503.882C1177.48,535.192 1167.24,579.091 1159.9,627.212C1154.29,664.001 1147.56,701.465 1114.04,727.505C1108.95,732.054 1108.27,736.995 1113.89,744.286C1120.03,752.249 1128.69,761.639 1131.3,766.006C1138.63,778.301 1138.55,799.751 1136.14,812.697C1125.35,870.556 1117.44,917.191 1107.05,974.182C1105,985.414 1099.42,989.22 1088.72,988.921C1069.32,988.38 1049.9,988.697 1030.51,988.061C1015.95,987.582 1013.81,984.538 1016.77,970.063C1020.92,949.802 1039.58,846.722 1043.65,815.279C1044.67,807.402 1049.58,788.075 1031.61,784.916C1030.33,787.863 1003.48,948.324 999.055,973.43C996.687,986.871 993.83,988.537 987.75,988.537C964.212,988.537 930.218,989.35 906.676,989.047C906.676,989.047 924.877,989.039 914.521,989.039C904.028,989.039 902.617,988.751 903.196,984.33C906.547,958.768 965.707,607.587 965.707,607.587C972.484,567.421 978.966,527.398 984.838,487.09Z" style="fill-rule:nonzero;"/>
        <path d="M870.082,568.897C871.18,556.58 877.941,552.237 889.416,552.566C898.418,552.824 907.439,552.527 916.439,552.837C925.085,553.134 930.664,552.504 932.585,542.758C935.118,529.913 936.159,522.255 938.824,507.055C941.827,489.93 938.625,486.465 922.261,486.371C902.165,486.255 888.059,486.521 867.962,486.46C829.182,486.342 790.399,486.378 751.626,485.765C739.902,485.58 733.643,489.428 731.951,501.551C730.335,513.133 726.824,524.44 724.602,535.955C721.7,550.99 721.883,551.295 736.954,551.841C757.707,552.594 782.071,551.694 802.833,552.186C801.708,567.854 759.337,853.684 748.628,925.234C743.737,957.912 738.337,972.728 751.549,972.728C756.543,972.728 773.749,972.796 781.54,972.724C802.682,972.528 803.351,971.994 806.832,951.529C812.486,918.286 869.351,577.092 870.082,568.897ZM733.034,989.217C723.142,989.653 724.317,977.2 725.145,971.676C742.713,854.379 760.658,737.139 778.529,619.887C779.808,606.387 781.274,592.901 782.3,579.382C783.022,569.876 778.07,565.614 768.607,565.743C756.869,565.903 745.125,565.784 733.384,565.654C703.066,565.316 703.067,565.286 707.15,536.477C710.64,521.075 713.993,505.64 717.653,490.278C722.03,471.913 722.394,471.009 740.738,470.996C790.52,470.958 910.536,473.97 950.171,473.97C959.557,473.97 960.148,483.013 959.495,487.355C956.979,504.059 954.554,520.779 951.524,537.389C944.931,573.531 945.952,564.721 908.392,565.03C887.3,565.204 886.944,565.625 883.485,586.445C862.83,710.767 840.863,843.848 820.14,968.159C816.917,987.492 816.822,987.631 796.248,988.066C773.434,988.548 762.075,987.936 733.034,989.217Z" style="fill-rule:nonzero;"/>
        <path d="M1397.26,552.8C1401.6,523.679 1394.82,486.353 1363.81,486.353L1262.34,486.353C1243.65,486.353 1228.43,515.12 1223.29,531.856C1212.53,566.908 1161.84,900.385 1155.28,946.655C1152.2,972.034 1150.2,972.034 1174.56,972.034L1277.36,972.034C1301.06,972.034 1313.07,961.078 1316.41,944.314C1324.44,903.855 1393.41,578.566 1397.26,552.8ZM1203.43,548.755C1208.24,524.226 1216.11,500.862 1235.86,483.322C1247.17,473.275 1256.53,471.222 1271.77,471.78C1293.82,472.586 1333.46,471.301 1358.5,471.301C1413.2,471.301 1415.87,525.763 1410.53,552.549C1387.47,668.192 1357.93,820.449 1336.78,936.449C1329.08,978.687 1302.05,989.112 1265.16,988.537C1228.77,987.97 1194.3,988.537 1161.11,988.537C1145.29,988.537 1134.76,984.999 1137.64,964.875C1142.01,934.26 1197.6,578.439 1203.43,548.755Z" style="fill-rule:nonzero;"/>
        <path d="M1045.03,672.791C1049.75,643.196 1056.75,604.28 1061.56,574.111C1086.14,588.343 1077.42,649.182 1045.03,672.791ZM1088.27,582.606C1085.06,571.538 1077.44,562.473 1069.26,554.668C1060.62,546.425 1052.81,549.572 1049.81,561.236C1046.22,575.152 1043.78,589.359 1040.84,603.44C1037.48,627.188 1033.96,650.915 1030.83,674.693C1029.1,687.782 1035.08,695.197 1046.8,689.666C1061.51,682.721 1067.21,676.507 1074.63,664.302C1082.8,650.874 1087.22,635.19 1090.03,619.719C1092.5,606.177 1091,592.02 1088.27,582.606Z" style="fill-rule:nonzero;"/>
        <path d="M1308.86,594.777C1311.17,580.627 1310.1,569.42 1298.34,569.57C1284.39,569.749 1281.89,591.747 1280.25,600.241C1264.84,680.096 1227.95,865.909 1227.94,878.868C1227.91,894.685 1254.2,899.14 1259.61,873.746C1268.81,830.522 1307.04,605.945 1308.86,594.777ZM1268.95,577.658C1275.33,548.785 1329.58,549.223 1325.35,586.566C1321.13,623.755 1278.05,864.412 1273.69,883.155C1268.74,904.475 1255.97,913.344 1236.69,909.888C1220.05,906.905 1209.61,892.012 1212.06,872.109C1214.08,855.709 1261.62,610.841 1268.95,577.658Z" style="fill-rule:nonzero;"/>
        <path d="M1059.73,233.014C1071.13,226.852 1088.58,200.97 1086.9,192.986C1072.9,196.904 1055.75,220.907 1059.73,233.014ZM521.36,384.488C521.5,384.908 521.638,385.327 521.776,385.746C524.544,385.134 527.41,384.804 530.06,383.864C543.233,379.193 556.439,374.591 569.463,369.527C584.53,363.668 598.487,355.914 609.67,343.882C615.634,337.464 620.766,330.577 621.826,321.57C622.762,313.621 618.961,310.272 611.151,311.658C587.227,315.903 570.506,331.621 553.945,347.526C548.614,352.645 543.484,358.008 538.619,363.57C532.67,370.372 527.096,377.501 521.36,384.488ZM1219.75,481.25C1220.11,481.604 1220.46,481.958 1220.82,482.312C1227.39,478.105 1234.86,474.828 1240.35,469.51C1254.69,455.619 1268.54,441.168 1281.86,426.291C1290.79,416.311 1299.34,405.77 1306.55,394.516C1321.18,371.692 1326.61,345.539 1330.96,319.267C1332.21,311.697 1332.21,303.814 1331.84,296.118C1331.55,290.038 1330.03,289.708 1325.46,293.576C1310.29,306.39 1298.44,322.158 1287.36,338.322C1274.33,357.334 1262.17,376.991 1250.5,396.874C1239.16,416.193 1229.76,436.578 1223.12,458.011C1220.83,465.398 1220.81,473.484 1219.75,481.25ZM886.592,301.249C886.813,291.052 886.05,290.299 878.208,290.663C877.346,290.703 876.475,290.739 875.627,290.885C850.357,295.253 826.785,304.242 806.428,319.771C782.37,338.123 760.322,358.801 740.896,382.149C738.569,384.945 734.936,386.658 731.909,388.875C730.036,390.247 727.686,391.272 726.379,393.058C720.985,400.435 715.758,407.944 710.745,415.585C699.497,432.728 688.357,449.943 677.379,467.259C676.575,468.527 676.719,471.904 677.616,472.495C683.661,476.481 689.61,479.94 697.714,476.621C710.126,471.539 723.052,467.727 735.64,463.055C751.32,457.237 766.622,450.615 779.899,440.114C785.034,436.053 790.394,432.27 795.461,428.129C801.306,423.352 806.957,418.336 812.665,413.392C822.143,405.184 831.64,397.115 838.904,386.597C844.522,378.463 852.01,371.618 857.654,363.499C864.61,353.492 870.299,342.618 876.936,332.377C883.574,322.134 884.829,310.496 886.592,301.249ZM403.925,501.108C404.289,506.142 404.723,510.012 404.815,513.891C404.977,520.644 402.028,522.852 395.413,521.571C371.347,516.909 347.391,511.426 323.145,508.01C298.991,504.607 274.541,504.617 250.352,508.962C234.573,511.797 218.784,514.665 203.148,518.174C184.582,522.341 167.047,529.673 149.602,537.121C147.908,537.844 146.396,539.154 145.017,540.427C136.681,548.123 129.343,549.106 119.642,543.396C113.1,539.545 107.684,534.597 102.517,528.799C95.364,520.77 90.69,511.69 85.992,502.331C76.82,484.057 78.238,466.242 86.794,448.187C96.407,427.902 110.262,410.453 123.376,392.529C131.792,381.025 141.103,370.171 150.056,359.061C153.623,354.635 157.314,350.31 160.939,345.931C162.765,343.726 162.375,342.047 159.533,341.427C146.847,338.657 142.08,328.772 138.821,317.931C136.327,309.637 140.166,302.633 148.67,300.977C167.105,297.388 185.686,294.543 204.222,291.483C210.855,290.387 217.818,290.407 224.094,288.314C228.932,286.701 233.011,282.69 237.289,279.555C248.26,271.517 259.215,263.455 270.056,255.244C278.156,249.109 285.863,242.443 294.104,236.509C313.692,222.406 333.355,208.397 353.257,194.739C367.191,185.176 381.373,175.937 395.799,167.134C411.831,157.351 428.222,148.15 444.544,138.849C454.113,133.396 463.851,128.238 473.515,122.953C475.284,121.986 477.067,121.044 478.844,120.09C478.832,119.583 478.819,119.075 478.807,118.568C476.455,118.178 474.109,117.505 471.748,117.441C429.432,116.295 387.112,115.258 344.795,114.125C302.181,112.984 259.844,116.881 217.591,121.54C188.383,124.761 159.455,130.049 131.441,139.149C107.705,146.859 84.674,156.302 65.278,172.624C58.07,178.689 52.061,185.729 49.928,195.387C48.379,202.398 49.835,208.36 55.016,213.379C67.417,225.392 83.049,230.579 99.315,234.63C103.528,235.68 107.517,237.787 111.446,239.735C112.903,240.457 114.515,241.923 114.975,243.388C116.071,246.874 116.522,250.562 117.234,254.169C114.136,254.477 110.908,255.507 107.959,254.982C81.321,250.235 58.526,238.602 41.87,216.7C23.309,192.296 26.696,167.176 50.76,148.133C70.467,132.538 93.394,123.268 116.803,115.298C149.61,104.128 183.542,97.182 217.868,93.119C251.801,89.103 285.919,85.996 320.045,84.422C358.342,82.655 396.74,82.582 435.092,82.653C467.741,82.714 500.385,84.13 533.036,84.714C541.82,84.872 550.635,84.414 559.407,83.815C567.974,83.23 574.913,86.969 579.456,96.471C582.845,103.558 586.066,110.907 587.963,118.489C592.018,134.704 589.238,137.563 574.567,149.122C564.432,157.107 553.587,164.193 543.098,171.733C525.595,184.313 508.085,196.883 490.647,209.553C472.922,222.431 455.258,235.392 437.612,248.377C423.32,258.893 409.076,269.473 394.856,280.086C391.957,282.25 389.291,284.722 386.466,286.989C383.624,289.27 383.99,291.62 386.184,294.052C398.449,307.651 401.251,323.922 400.051,341.515C399.523,349.26 394.06,352.051 388.26,354.186C378.399,357.816 368.451,354.74 358.559,353.528C344.876,351.851 331.205,350.061 317.496,348.635C311.149,347.975 307.129,352.911 302.774,356.32C296.952,360.878 291.631,366.087 286.203,371.132C268.685,387.417 250.981,403.514 233.809,420.158C222.444,431.173 211.82,442.955 200.989,454.51C199.206,456.412 198.067,458.917 195.827,462.386C201.388,462.123 205.406,461.952 209.421,461.739C224.747,460.926 240.067,459.972 255.399,459.309C278.98,458.29 302.337,460.923 325.513,464.786C342.171,467.562 358.723,471.131 375.149,475.064C380.483,476.341 385.275,479.883 390.309,482.402C391.325,482.911 392.312,483.48 394.488,484.658C393.4,480.977 392.678,478.425 391.893,475.893C387.736,462.49 389.476,449.019 393.217,436.129C397.078,422.831 402.171,409.762 408.024,397.196C418.812,374.037 433.983,353.792 452.492,336.156C461.1,327.955 469.567,319.405 479.168,312.495C490.735,304.169 503.112,296.793 515.754,290.176C526.235,284.691 537.289,279.708 548.671,276.686C561.061,273.397 574.168,270.881 586.875,271.23C600.636,271.608 612.37,279.509 622.032,289.373C632.817,300.382 640.181,313.384 641.737,328.968C643.106,342.677 636.613,353.362 628.122,363.537C616.204,377.817 600.615,386.222 584.021,393.454C561.627,403.212 538.974,412.052 514.507,415.142C511.595,415.509 508.678,416.189 505.769,416.163C497.758,416.092 493.517,420.379 489.264,426.926C476.504,446.572 467.675,468.016 458.556,489.371C457.966,490.753 457.67,492.259 456.696,495.521C462.517,494.494 467.414,494.216 471.909,492.728C485.558,488.209 498.354,481.925 510.388,473.918C524.883,464.273 539.509,454.759 554.591,446.075C570.584,436.866 586.96,428.244 603.59,420.236C614.438,415.012 626.091,411.472 637.254,406.865C639.538,405.923 641.833,403.952 643.13,401.846C655.338,382.02 667.248,362.012 679.407,342.155C690.385,324.229 701.51,306.39 712.679,288.581C719.459,277.771 726.408,267.067 733.351,256.36C741.589,243.655 749.492,230.707 758.277,218.389C772.079,199.036 786.237,179.922 800.734,161.083C812.712,145.518 825.365,130.471 837.802,115.262C840.086,112.469 842.791,110.021 845.255,107.371C846.478,106.057 847.597,104.648 849.851,102.007C844.734,102.007 841.195,101.631 837.76,102.065C803.758,106.363 772.202,117.457 744.13,137.277C727.663,148.903 714.096,163.171 707.828,183.097C706.43,187.543 707.142,189.83 711.834,191.715C719.714,194.882 725.463,201.073 729.564,208.292C733.289,214.849 729.969,220.352 722.491,221.209C712.437,222.361 704.039,218.346 697.15,211.636C678.677,193.641 675.615,169.679 685.895,145.936C695.502,123.749 713.311,110.943 733.212,100.15C758.488,86.442 785.822,78.29 814.157,74.184C840.588,70.354 866.271,73.079 889.37,88.165C900.595,95.495 907.228,106.339 910.501,118.927C911.548,122.95 910.2,128.205 908.44,132.24C900.684,150.032 889.797,166.034 878.613,181.807C869.636,194.468 860.558,207.062 851.33,219.543C841.908,232.284 832.208,244.82 822.706,257.503C813.741,269.468 804.875,281.507 796.5,294.47C797.848,293.801 799.224,293.183 800.539,292.456C816.103,283.847 831.989,275.759 847.135,266.469C867.768,253.815 885.915,258.047 903.193,272.661C916.703,284.088 926.399,298.157 931.854,314.984C933.05,318.674 934.608,319.369 937.79,317.559C963.888,302.709 991.034,289.598 1014.87,271.005C1023.99,263.897 1033.22,256.942 1042.5,250.054C1045.74,247.651 1045.91,245.573 1043.33,242.44C1025.83,221.239 1032.98,193.086 1052.9,178.083C1059.09,173.415 1066.41,169.683 1073.79,167.241C1086.88,162.907 1101.94,169.303 1109.57,180.805C1113.36,186.503 1113.21,192.501 1111.94,198.722C1108.42,215.967 1099.76,230.465 1087.96,243.28C1086.86,244.475 1085.89,245.793 1083.87,248.268C1087.73,247.699 1090.02,247.424 1092.29,247.014C1098.07,245.967 1103.17,247.569 1107.86,250.879C1112.17,253.917 1116.62,256.765 1120.78,259.992C1127.53,265.235 1131.18,272.665 1134.27,280.372C1136.18,285.152 1135.98,289.736 1132.69,294.058C1125.69,303.229 1118.56,312.318 1111.98,321.785C1105.62,330.95 1099.98,340.616 1093.83,349.934C1088.62,357.82 1083.01,365.439 1077.81,373.325C1067.57,388.835 1057.72,404.6 1047.29,419.973C1038.68,432.652 1029.44,444.902 1020.54,457.382C1018.71,459.949 1017.14,462.699 1015.44,465.365C1015.94,465.835 1016.44,466.304 1016.93,466.775C1022.7,462.334 1028.9,458.35 1034.14,453.358C1045.13,442.892 1055.48,431.767 1066.33,421.145C1084.2,403.633 1101.66,385.633 1120.4,369.082C1141.07,350.822 1162.97,333.949 1184.36,316.505C1188.47,313.155 1192.79,310.932 1198.59,311.889C1200.74,312.244 1203.89,310.413 1205.65,308.651C1217.53,296.783 1229.56,284.955 1244.11,276.514C1257.33,268.842 1270.87,260.941 1285.28,256.244C1304.4,250.01 1322.88,255.276 1339.41,266.522C1343.53,269.323 1347.38,272.564 1351.1,275.891C1357.44,281.578 1360.58,288.9 1361.32,297.333C1361.48,299.134 1362,300.903 1362.5,303.385C1364.11,302.257 1365.22,301.77 1365.93,300.94C1376.19,288.898 1386.41,276.815 1396.63,264.731C1407.8,251.515 1414.58,251.4 1431.52,260.614C1438.6,264.464 1444.94,270.9 1445.65,279.914C1446.01,284.463 1445.62,289.749 1443.59,293.697C1433.07,314.248 1422.22,334.644 1410.9,354.765C1400.68,372.924 1389.6,390.597 1379.1,408.599C1370.94,422.571 1362.98,436.653 1355.18,450.826C1352.36,455.946 1350.24,461.453 1347.9,466.827C1347.48,467.794 1347.56,468.977 1347.25,471.202C1351.27,468.564 1354.46,466.653 1357.45,464.477C1365.41,458.689 1373.32,452.835 1381.19,446.914C1388.05,441.743 1395.41,440.991 1403.17,444.348C1411.19,447.818 1412.54,455.392 1406.04,461.267C1401.31,465.541 1396.1,469.284 1391.16,473.331C1377.02,484.922 1362.76,496.382 1348.81,508.206C1336.31,518.802 1323.48,520.872 1308.88,512.334C1301.02,507.736 1293.42,503.035 1288.19,495.533C1285.31,491.404 1283.43,486.575 1280.62,481.113C1277.95,484.108 1274.93,487.181 1272.28,490.545C1263.05,502.26 1252.45,512.471 1237.98,517.028C1231.27,519.143 1223.66,520.11 1216.68,519.382C1198.55,517.488 1182.43,510.067 1168.59,498.138C1153.68,485.294 1146.63,468.694 1146.51,449.236C1146.4,430.686 1149.23,412.491 1155.23,394.919C1157.6,387.95 1161.08,381.361 1163.91,374.537C1164.86,372.239 1165.35,369.752 1166.06,367.351C1165.66,367.06 1165.27,366.77 1164.87,366.479C1162.59,368.4 1160.24,370.242 1158.04,372.255C1124.92,402.611 1094.26,435.373 1063.93,468.452C1048.9,484.84 1031.88,498.835 1012.03,509.062C1000.98,514.757 990.011,513.19 979.263,507.52C961.714,498.261 950.182,483.998 943.69,465.484C940.393,456.079 941.43,446.383 942.521,436.809C943.117,431.582 944.221,426.277 946.025,421.346C952.368,404.014 959.727,387.227 969.794,371.535C982.684,351.445 997.725,333.178 1013.36,315.276C1018.79,309.06 1023.52,302.233 1028.53,295.652C1028.89,295.183 1028.89,294.444 1029.39,292.572C1027.05,293.836 1025.62,294.546 1024.24,295.356C1006.11,306.055 988.073,316.926 969.817,327.416C959.952,333.084 949.647,337.982 939.719,343.546C938.149,344.426 936.831,346.904 936.579,348.799C934.492,364.514 932.716,380.166 925.153,394.632C917.023,410.179 910.656,426.706 901.786,441.789C894.501,454.175 885.5,465.827 875.747,476.416C865.902,487.104 854.792,496.875 843.146,505.596C830.189,515.298 815.344,521.776 799.573,526.203C781.046,531.404 762.405,530.974 743.575,529.265C730.496,528.079 717.403,527.358 705.201,521.624C691.652,515.257 680.552,505.845 670.593,494.9C669.581,493.787 668.522,492.715 666.691,490.789C663.988,495.283 661.454,499.084 659.339,503.105C655.466,510.468 653.195,511.736 644.854,510.253C632.077,507.98 621.676,501.573 614.025,491.247C612.099,488.647 611.34,484.524 611.495,481.167C612.019,469.876 614.813,459.052 619.951,448.893C620.69,447.43 621.131,445.817 621.711,444.273C621.411,443.892 621.11,443.51 620.81,443.129C617.455,444.56 613.906,445.662 610.778,447.484C600.378,453.537 589.882,459.48 579.885,466.154C567.133,474.669 554.699,483.676 542.369,492.797C527.417,503.856 513.442,516.22 496.346,524.247C480.26,531.799 463.509,533.529 446.254,531.12C434.78,529.519 426.431,521.794 418.009,514.664C413.43,510.787 409.328,506.347 403.925,501.108Z" style="fill-rule:nonzero;"/>
    </g>
</svg>
